<?xml version="1.0" encoding="utf-8"?>
<svg viewBox="145.172 121.263 677.277 83.75" xmlns="http://www.w3.org/2000/svg">
  <g id="#020304ff" transform="matrix(1, 0, 0, 1, 92.509804, 82.793236)">
    <path opacity="1.00" d=" M 441.65 79.74 C 448.29 65.99 455.00 52.27 461.54 38.47 C 468.72 62.47 476.40 86.34 484.19 110.14 C 489.27 100.14 494.03 89.99 499.16 80.02 C 513.39 80.02 527.62 79.91 541.85 80.08 C 541.79 81.25 541.74 82.43 541.70 83.60 C 528.43 83.63 515.15 83.59 501.87 83.61 C 495.54 96.39 489.09 109.10 483.50 122.22 C 475.93 98.35 468.39 74.47 460.76 50.61 C 454.46 61.12 450.11 72.72 444.23 83.48 C 431.15 83.30 418.07 83.49 404.99 83.38 C 404.99 82.49 405.00 80.71 405.01 79.82 C 417.22 79.73 429.43 79.88 441.65 79.74 Z" style="fill: rgb(255, 255, 255);"/>
    <path opacity="1.00" d=" M 569.69 55.48 C 571.15 55.53 572.63 55.58 574.10 55.63 C 579.56 70.12 585.14 84.56 590.71 99.01 C 589.43 99.01 588.15 99.01 586.88 99.02 C 585.10 94.48 583.63 89.83 581.89 85.27 C 575.28 85.23 568.68 85.25 562.08 85.26 C 560.53 89.75 558.88 94.22 557.52 98.78 C 556.30 98.88 555.08 98.99 553.87 99.09 C 559.05 84.52 564.35 69.99 569.69 55.48 M 563.08 82.40 C 568.98 82.40 574.89 82.42 580.80 82.38 C 577.94 74.58 574.86 66.87 571.72 59.18 C 568.62 66.83 565.75 74.58 563.08 82.40 Z" style="fill: rgb(255, 255, 255);"/>
    <path opacity="1.00" d=" M 52.79 57.00 C 60.62 55.99 69.46 55.91 77.45 57.54 C 87.62 59.98 88.88 75.29 80.59 80.64 C 74.18 84.69 66.22 83.04 59.06 83.35 C 58.88 89.10 59.00 94.85 58.97 100.60 C 56.88 100.60 54.79 100.61 52.71 100.62 C 52.74 86.09 52.54 71.53 52.79 57.00 M 59.01 62.78 C 58.93 67.55 58.93 72.32 59.01 77.09 C 64.43 76.96 70.02 77.71 75.32 76.28 C 81.14 74.72 81.10 64.30 74.91 63.31 C 69.67 62.33 64.30 62.86 59.01 62.78 Z" style="fill: rgb(255, 255, 255);"/>
    <path opacity="1.00" d=" M 134.98 56.41 C 136.96 56.42 138.94 56.41 140.93 56.40 C 141.19 69.04 140.95 81.69 141.05 94.34 C 148.03 94.42 155.02 94.36 162.01 94.35 C 162.02 96.45 162.02 98.55 162.00 100.65 C 152.99 100.61 143.97 100.63 134.95 100.64 C 134.73 85.90 134.69 71.15 134.98 56.41 Z" style="fill: rgb(255, 255, 255);"/>
    <path opacity="1.00" d=" M 172.26 60.27 C 181.28 51.40 201.32 55.45 201.79 69.69 C 199.80 69.67 197.81 69.65 195.83 69.63 C 194.12 61.67 183.90 60.16 177.74 63.70 C 174.87 65.48 174.76 70.53 178.00 71.99 C 184.77 75.40 193.40 74.41 199.29 79.69 C 204.71 84.70 203.16 94.32 197.18 98.22 C 186.71 105.49 166.72 100.64 167.50 85.60 C 169.55 85.61 171.60 85.67 173.65 85.81 C 174.06 95.18 185.79 96.91 192.70 93.73 C 196.45 92.28 197.61 86.21 194.02 84.01 C 187.44 80.19 178.91 81.10 172.82 76.23 C 167.95 72.47 167.94 64.44 172.26 60.27 Z" style="fill: rgb(255, 255, 255);"/>
    <path opacity="1.00" d=" M 223.57 56.43 C 225.64 56.40 227.72 56.35 229.80 56.27 C 236.18 70.92 241.94 85.86 247.99 100.66 C 245.56 100.66 243.13 100.61 240.70 100.48 C 239.20 96.14 237.49 91.87 235.89 87.56 C 229.95 87.46 224.02 87.47 218.08 87.55 C 216.55 91.91 214.96 96.25 213.35 100.58 C 211.16 100.60 208.97 100.62 206.78 100.64 C 212.01 85.77 218.03 71.19 223.57 56.43 M 226.58 65.66 C 224.37 71.04 222.25 76.46 220.17 81.89 C 224.64 81.95 229.11 81.95 233.58 81.91 C 231.34 76.46 229.46 70.82 226.58 65.66 Z" style="fill: rgb(255, 255, 255);"/>
    <path opacity="1.00" d=" M 247.39 56.44 C 258.91 56.41 270.43 56.48 281.94 56.40 C 281.96 58.52 281.98 60.64 282.00 62.76 C 277.26 62.75 272.52 62.73 267.79 62.79 C 267.68 75.41 267.82 88.03 267.72 100.65 C 265.62 100.62 263.53 100.61 261.44 100.61 C 261.39 88.00 261.51 75.40 261.39 62.80 C 256.71 62.73 252.03 62.77 247.35 62.73 C 247.37 60.63 247.39 58.53 247.39 56.44 Z" style="fill: rgb(255, 255, 255);"/>
    <path opacity="1.00" d=" M 317.37 56.55 C 325.49 54.19 335.23 56.72 340.13 63.90 C 346.19 72.76 345.92 85.73 339.26 94.21 C 332.93 102.23 320.34 103.62 312.00 98.02 C 297.67 88.31 299.90 61.48 317.37 56.55 M 320.27 62.32 C 309.12 64.47 306.65 78.92 311.10 87.77 C 315.24 96.98 329.93 97.61 335.18 89.17 C 338.90 83.01 339.00 74.73 335.57 68.43 C 332.65 63.13 325.96 61.03 320.27 62.32 Z" style="fill: rgb(255, 255, 255);"/>
    <path opacity="1.00" d=" M 351.34 56.43 C 353.48 56.44 355.61 56.42 357.76 56.37 C 365.47 67.19 372.33 78.60 380.00 89.44 C 380.27 78.45 380.06 67.46 380.10 56.46 C 382.18 56.46 384.26 56.45 386.35 56.44 C 386.40 71.16 386.39 85.89 386.35 100.61 C 384.22 100.61 382.09 100.62 379.96 100.63 C 372.44 89.77 365.58 78.45 357.77 67.81 C 357.44 78.74 357.73 89.69 357.61 100.62 C 355.52 100.62 353.43 100.62 351.34 100.65 C 351.29 85.91 351.29 71.17 351.34 56.43 Z" style="fill: rgb(255, 255, 255);"/>
    <path opacity="1.00" d=" M 596.27 56.27 C 597.27 56.47 598.28 56.68 599.30 56.88 C 599.54 67.53 598.50 78.31 600.01 88.88 C 601.43 96.98 611.32 97.78 617.69 95.62 C 622.14 93.76 623.29 88.41 623.48 84.08 C 623.67 74.87 623.45 65.66 623.57 56.45 C 624.26 56.48 625.63 56.54 626.32 56.57 C 627.00 65.35 626.40 74.21 626.61 83.02 C 626.67 89.00 625.04 96.42 618.73 98.69 C 612.81 100.56 605.48 100.64 600.46 96.51 C 597.12 93.33 596.14 88.48 596.20 84.03 C 596.22 74.78 596.12 65.52 596.27 56.27 Z" style="fill: rgb(255, 255, 255);"/>
    <path opacity="1.00" d=" M 679.45 56.37 C 680.44 56.49 681.44 56.62 682.44 56.74 C 682.44 70.85 682.49 84.96 682.42 99.07 C 681.65 99.03 680.11 98.94 679.34 98.90 C 679.51 84.72 679.29 70.55 679.45 56.37 Z" style="fill: rgb(255, 255, 255);"/>
    <path opacity="1.00" d=" M 706.30 56.43 C 714.08 54.31 723.07 57.81 726.84 65.06 C 732.44 75.58 730.67 91.34 719.74 97.75 C 710.88 102.75 698.63 98.75 694.54 89.40 C 689.08 77.90 692.42 59.87 706.30 56.43 M 707.39 59.60 C 695.11 62.38 692.90 78.52 697.63 88.35 C 701.78 98.43 717.61 99.39 723.31 90.31 C 727.76 82.98 727.83 72.95 723.41 65.60 C 720.11 60.25 713.31 58.32 707.39 59.60 Z" style="fill: rgb(255, 255, 255);"/>
    <path opacity="1.00" d=" M 91.73 56.71 C 93.80 56.71 95.87 56.70 97.95 56.69 C 98.04 65.81 97.86 74.94 98.01 84.06 C 98.13 88.01 99.18 93.20 103.57 94.44 C 107.30 95.35 111.38 95.39 115.04 94.14 C 118.76 92.39 119.44 87.75 119.63 84.07 C 119.81 74.95 119.57 65.83 119.73 56.71 C 121.81 56.71 123.90 56.70 125.98 56.68 C 125.72 67.50 126.68 78.40 125.37 89.16 C 123.47 105.87 93.96 105.71 92.16 89.02 C 91.17 78.30 91.88 67.47 91.73 56.71 Z" style="fill: rgb(255, 255, 255);"/>
    <path opacity="1.00" d=" M 288.98 56.45 C 291.06 56.45 293.14 56.45 295.22 56.44 C 295.27 71.17 295.26 85.89 295.23 100.62 C 293.14 100.61 291.06 100.61 288.98 100.61 C 288.95 85.89 288.95 71.17 288.98 56.45 Z" style="fill: rgb(255, 255, 255);"/>
    <path opacity="1.00" d=" M 637.17 56.61 C 645.25 56.76 654.09 55.33 661.44 59.53 C 669.55 64.59 670.28 75.50 668.86 84.03 C 668.00 90.76 663.06 96.78 656.36 98.32 C 650.05 99.56 643.56 98.83 637.17 98.97 C 637.21 84.85 637.22 70.73 637.17 56.61 M 640.25 59.84 C 640.25 71.80 640.23 83.77 640.27 95.73 C 647.80 95.43 657.31 97.36 662.78 90.77 C 667.15 83.78 667.03 74.41 664.12 66.89 C 659.51 58.43 648.37 59.93 640.25 59.84 Z" style="fill: rgb(255, 255, 255);"/>
  </g>
</svg>